<?xml version="1.0" standalone="no"?>
<!DOCTYPE svg PUBLIC "-//W3C//DTD SVG 20010904//EN"
 "http://www.w3.org/TR/2001/REC-SVG-20010904/DTD/svg10.dtd">
<svg version="1.0" xmlns="http://www.w3.org/2000/svg"
 width="192.000000pt" height="192.000000pt" viewBox="0 0 192.000000 192.000000"
 preserveAspectRatio="xMidYMid meet">
<metadata>
Created by potrace 1.16, written by Peter Selinger 2001-2019
</metadata>
<g transform="translate(0.000000,192.000000) scale(0.100000,-0.100000)"
fill="#000000" stroke="none">
<path d="M823 1601 c-94 -37 -113 -77 -113 -236 0 -82 -3 -114 -11 -109 -7 4
-7 -1 1 -15 14 -27 46 -24 43 4 -25 207 -7 282 75 325 35 17 107 14 149 -7 60
-29 83 -85 83 -203 0 -57 -4 -100 -11 -107 -13 -13 -4 -33 17 -33 16 0 15 -8
14 138 -1 110 -6 133 -44 200 -8 13 -16 23 -20 22 -3 0 -27 8 -52 20 -54 23
-74 24 -131 1z"/>
<path d="M470 1370 c-6 -4 -11 -10 -10 -14 3 -10 -22 -66 -29 -66 -4 0 -8 -14
-9 -31 -1 -17 -7 -39 -12 -49 -30 -56 -30 -414 0 -469 5 -11 10 -33 10 -50 0
-16 4 -32 9 -36 5 -3 13 -20 16 -38 7 -30 13 -44 50 -116 8 -16 15 -36 15 -44
0 -8 7 -17 15 -21 8 -3 15 -12 15 -19 0 -8 7 -20 15 -27 12 -10 15 -9 15 5 0
9 -6 29 -14 43 -21 39 -45 113 -48 147 -2 17 -6 33 -11 36 -4 3 -9 20 -12 37
-2 18 -9 65 -16 106 -11 68 -8 251 5 329 6 39 37 124 62 172 l21 40 72 3 c67
3 72 4 69 24 -2 13 -11 22 -23 24 -11 1 -45 5 -75 9 -99 11 -118 12 -130 5z"/>
<path d="M780 1170 c-19 -4 -39 -6 -44 -3 -5 4 -6 1 -3 -4 4 -6 -6 -16 -22
-22 -15 -7 -45 -30 -67 -52 -22 -23 -47 -39 -61 -39 -16 0 -23 -6 -23 -19 0
-11 6 -22 13 -24 6 -3 0 -6 -15 -6 -24 -1 -28 -5 -28 -31 0 -28 3 -30 35 -30
23 0 35 5 35 14 0 40 97 156 131 156 9 0 19 5 21 10 2 6 28 14 58 19 141 22
261 -37 316 -157 l19 -42 130 3 129 2 0 25 0 25 -129 5 c-129 6 -129 6 -34 8
73 1 98 6 102 16 3 8 3 17 0 20 -4 3 -55 6 -114 6 -94 0 -108 2 -113 18 -3 9
-23 28 -43 42 l-37 25 51 3 c33 2 53 8 57 17 4 12 -9 15 -73 15 -43 0 -118 2
-167 5 -49 2 -105 0 -124 -5z"/>
<path d="M805 1116 c-55 -13 -97 -37 -134 -75 -28 -29 -54 -88 -46 -101 4 -6
-16 -10 -49 -10 -73 0 -86 -18 -86 -117 l0 -73 49 0 c42 0 51 -4 67 -27 11
-16 19 -37 19 -48 0 -15 8 -21 33 -23 27 -3 32 -7 27 -23 -6 -17 -1 -19 42
-20 36 0 43 -3 28 -9 -12 -5 33 -8 120 -8 85 0 130 3 115 8 -17 5 3 8 63 9 69
1 87 4 87 15 0 10 -14 16 -42 19 -24 2 1 4 55 5 90 2 97 3 97 22 0 18 -7 20
-71 20 -62 0 -70 2 -59 15 10 11 36 15 112 15 78 0 100 3 104 15 4 11 21 15
55 15 46 0 49 2 49 25 0 14 -5 25 -12 25 -9 0 -9 3 0 12 7 7 12 38 12 70 l0
58 -165 0 c-162 0 -165 0 -165 21 0 25 -36 86 -65 112 -28 24 -71 43 -127 56
-54 13 -48 13 -113 -3z m-85 -236 l-55 -7 55 -3 55 -3 -40 -7 -40 -7 38 -2
c30 -1 37 -5 37 -21 0 -18 -7 -20 -55 -20 -35 0 -57 5 -60 13 -6 15 -107 10
-117 -7 -4 -6 -8 8 -8 32 l0 42 123 -2 c95 -1 110 -3 67 -8z m101 -2 c0 -10 2
-10 6 0 7 17 163 17 163 0 0 -9 4 -8 10 2 8 13 11 13 19 1 9 -13 32 -12 76 4
12 4 9 -1 -8 -13 l-28 -19 33 -22 c28 -20 29 -22 8 -16 -54 15 -80 17 -80 7 0
-6 -9 -10 -20 -9 -11 1 -20 5 -20 9 0 13 -85 9 -98 -4 -9 -9 -12 -7 -12 10 0
16 6 22 23 23 l22 2 -22 4 c-13 2 -23 9 -23 15 0 5 -6 8 -12 5 -8 -2 -12 -16
-10 -36 3 -29 1 -32 -20 -29 -18 2 -23 9 -23 31 -1 16 -7 32 -15 37 -12 8 -10
10 8 10 12 0 22 -6 23 -12z"/>
</g>
</svg>
